<?xml version="1.0" encoding="utf-8"?>
<!-- Generator: Adobe Illustrator 25.2.1, SVG Export Plug-In . SVG Version: 6.00 Build 0)  -->
<svg version="1.1" id="Layer_1" xmlns="http://www.w3.org/2000/svg" xmlns:xlink="http://www.w3.org/1999/xlink" x="0px" y="0px"
	 viewBox="0 0 514 514" style="enable-background:new 0 0 514 514;" xml:space="preserve">
<style type="text/css">
	.st0{fill:#6DE98E;}
	.st1{fill:#FFE948;stroke:#FFE948;stroke-width:30;stroke-miterlimit:10;}
	.st2{fill:#004FFF;stroke:#004FFF;stroke-width:30;stroke-miterlimit:10;}
	.st3{fill:none;stroke:#FFFFFF;stroke-width:40;stroke-miterlimit:10;}
	.st4{stroke:#000000;stroke-width:30;stroke-miterlimit:10;}
</style>
<g id="Layer_2_1_">
	<g id="Layer_1-2">
		<circle class="st0" cx="257" cy="257" r="249.5"/>
		<path class="st1" d="M344,97.3h117.4c4.4,0,8-3.6,8-8s-3.6-8-8-8H344c-4.4,0-8,3.6-8,8S339.6,97.3,344,97.3z"/>
		<path class="st2" d="M344,53.6h117.4c4.4,0,8-3.6,8-8s-3.6-8-8-8H344c-4.4,0-8,3.6-8,8S339.6,53.6,344,53.6z"/>
		<path class="st3" d="M149.5,265h215.1c4.4,0,8-3.6,8-8s-3.6-8-8-8H149.5c-4.4,0-8,3.6-8,8S145,265,149.5,265z"/>
		<path class="st3" d="M149.5,348.5h215.1c4.4,0,8-3.6,8-8s-3.6-8-8-8H149.5c-4.4,0-8,3.6-8,8S145,348.5,149.5,348.5z"/>
		<path class="st3" d="M149.5,176.1h215.1c4.4,0,8-3.6,8-8s-3.6-8-8-8H149.5c-4.4,0-8,3.6-8,8S145,176.1,149.5,176.1z"/>
		<polygon class="st4" points="241,233.3 307.2,197.9 328,422 267,290.2 205.6,321.1 176.1,103.7 		"/>
	</g>
</g>
</svg>
